ffmpeg started on 2026-03-29 at 16:34:45
Report written to "D:\Convert\FFMetrics\reports\psnr_report-6.txt"
Log level: 32
Command line:
ffmpeg -hide_banner -nostdin -r 24000/1001 -i "F:\\\xc0\xed\xe8\xec\xe5\\LightFamily\\\xce\xe4\xed\xe0\xe6\xe4\xfb \xff \xf1\xf2\xe0\xeb\xe0 \xef\xf0\xe8\xed\xf6\xe5\xf1\xf1\xee\xe9\\LightFamilyDUB_\xce\xe4\xed\xe0\xe6\xe4\xfb_\xff_\xf1\xf2\xe0\xeb\xe0_\xef\xf0\xe8\xed\xf6\xe5\xf1\xf1\xee\xe9_03_\xf1\xe5\xf0\xe8\xff_HEVC.mkv" -r 24000/1001 -i "F:\\\xc0\xed\xe8\xec\xe5\\LightFamily\\\xce\xe4\xed\xe0\xe6\xe4\xfb \xff \xf1\xf2\xe0\xeb\xe0 \xef\xf0\xe8\xed\xf6\xe5\xf1\xf1\xee\xe9\\LightFamilyDUB_\xce\xe4\xed\xe0\xe6\xe4\xfb_\xff_\xf1\xf2\xe0\xeb\xe0_\xef\xf0\xe8\xed\xf6\xe5\xf1\xf1\xee\xe9_03_\xf1\xe5\xf0\xe8\xff.mp4" -lavfi "[0:v]settb=AVTB,setpts=PTS-STARTPTS,format=pix_fmts=yuv420p10le,fps=24000/1001,scale=1920:1080:flags=lanczos:param0=3:out_range=limited:out_chroma_loc=left,setsar=1/1,setdar=(1920/1080)*(1/1)[main];[1:v]settb=AVTB,setpts=PTS-STARTPTS,format=pix_fmts=yuv420p,fps=24000/1001,scale=1920:1080:flags=lanczos:param0=3:out_range=limited:out_chroma_loc=left,setsar=1/1,setdar=(1920/1080)*(1/1)[ref];[main][ref]psnr=eof_action=endall:stats_file='D\\:/Convert/FFMetrics/logs/psnr_logfile-6.txt'" -f null -
Input #0, matroska,webm, from 'F:\Аниме\LightFamily\Однажды я стала принцессой\LightFamilyDUB_Однажды_я_стала_принцессой_03_серия_HEVC.mkv':
  Metadata:
    COMPATIBLE_BRANDS: mp42mp41
    MAJOR_BRAND     : mp42
    MINOR_VERSION   : 0
    ENCODER         : Lavf61.7.100
  Duration: 00:20:59.93, start: -0.021000, bitrate: 1651 kb/s
  Stream #0:0(eng): Video: hevc (Main 10), yuv420p10le(tv, progressive), 1920x1080 [SAR 1:1 DAR 16:9], 23.98 fps, 23.98 tbr, 1k tbn (default)
      Metadata:
        HANDLER_NAME    : Mainconcept Video Media Handler
        VENDOR_ID       : [0][0][0][0]
        ENCODER         : Lavc61.19.100 libx265
        BPS             : 1450632
        DURATION        : 00:20:59.883708333
        NUMBER_OF_FRAMES: 30207
        NUMBER_OF_BYTES : 228453371
        _STATISTICS_WRITING_APP: mkvpropedit v94.0 ('Initiate') 64-bit
        _STATISTICS_WRITING_DATE_UTC: 2026-03-28 15:39:15
        _STATISTICS_TAGS: BPS DURATION NUMBER_OF_FRAMES NUMBER_OF_BYTES
  Stream #0:1(eng): Audio: aac (LC), 48000 Hz, stereo, fltp (default)
      Metadata:
        HANDLER_NAME    : #Mainconcept MP4 Sound Media Handler
        VENDOR_ID       : [0][0][0][0]
        ENCODER         : Lavc61.19.100 aac
        BPS             : 196370
        DURATION        : 00:20:59.904000000
        NUMBER_OF_FRAMES: 59059
        NUMBER_OF_BYTES : 30925955
        _STATISTICS_WRITING_APP: mkvpropedit v94.0 ('Initiate') 64-bit
        _STATISTICS_WRITING_DATE_UTC: 2026-03-28 15:39:15
        _STATISTICS_TAGS: BPS DURATION NUMBER_OF_FRAMES NUMBER_OF_BYTES
Input #1, mov,mp4,m4a,3gp,3g2,mj2, from 'F:\Аниме\LightFamily\Однажды я стала принцессой\LightFamilyDUB_Однажды_я_стала_принцессой_03_серия.mp4':
  Metadata:
    major_brand     : mp42
    minor_version   : 0
    compatible_brands: mp42mp41
    creation_time   : 2025-11-15T11:03:06.000000Z
  Duration: 00:20:59.88, start: 0.000000, bitrate: 8761 kb/s
  Stream #1:0[0x1](eng): Video: h264 (Main) (avc1 / 0x31637661), yuv420p(progressive), 1920x1080 [SAR 1:1 DAR 16:9], 8377 kb/s, 23.98 fps, 23.98 tbr, 24k tbn (default)
      Metadata:
        creation_time   : 2025-11-15T11:03:06.000000Z
        handler_name    : Mainconcept Video Media Handler
        vendor_id       : [0][0][0][0]
        encoder         : AVC Coding
  Stream #1:1[0x2](eng): Audio: aac (LC) (mp4a / 0x6134706D), 48000 Hz, stereo, fltp, 381 kb/s (default)
      Metadata:
        creation_time   : 2025-11-15T11:03:06.000000Z
        handler_name    : #Mainconcept MP4 Sound Media Handler
        vendor_id       : [0][0][0][0]
Stream mapping:
  Stream #0:0 (hevc) -> settb:default
  Stream #1:0 (h264) -> settb:default
  psnr:default -> Stream #0:0 (wrapped_avframe)
  Stream #0:1 -> #0:1 (aac (native) -> pcm_s16le (native))
Output #0, null, to 'pipe:':
  Metadata:
    COMPATIBLE_BRANDS: mp42mp41
    MAJOR_BRAND     : mp42
    MINOR_VERSION   : 0
    encoder         : Lavf61.7.100
  Stream #0:0: Video: wrapped_avframe, yuv420p10le(tv, progressive), 1920x1080 [SAR 1:1 DAR 16:9], q=2-31, 200 kb/s, 23.98 fps, 23.98 tbn
      Metadata:
        encoder         : Lavc61.19.100 wrapped_avframe
  Stream #0:1(eng): Audio: pcm_s16le, 48000 Hz, stereo, s16, 1536 kb/s (default)
      Metadata:
        HANDLER_NAME    : #Mainconcept MP4 Sound Media Handler
        VENDOR_ID       : [0][0][0][0]
        _STATISTICS_TAGS: BPS DURATION NUMBER_OF_FRAMES NUMBER_OF_BYTES
        BPS             : 196370
        DURATION        : 00:20:59.904000000
        NUMBER_OF_FRAMES: 59059
        NUMBER_OF_BYTES : 30925955
        _STATISTICS_WRITING_APP: mkvpropedit v94.0 ('Initiate') 64-bit
        _STATISTICS_WRITING_DATE_UTC: 2026-03-28 15:39:15
        encoder         : Lavc61.19.100 pcm_s16le
frame=  119 fps=0.0 q=-0.0 size=N/A time=00:00:04.96 bitrate=N/A speed=9.54x    frame=  309 fps=299 q=-0.0 size=N/A time=00:00:12.88 bitrate=N/A speed=12.5x    frame=  527 fps=341 q=-0.0 size=N/A time=00:00:21.98 bitrate=N/A speed=14.2x    frame=  725 fps=350 q=-0.0 size=N/A time=00:00:30.23 bitrate=N/A speed=14.6x    frame=  953 fps=369 q=-0.0 size=N/A time=00:00:39.74 bitrate=N/A speed=15.4x    frame= 1173 fps=380 q=-0.0 size=N/A time=00:00:48.92 bitrate=N/A speed=15.8x    frame= 1399 fps=387 q=-0.0 size=N/A time=00:00:58.34 bitrate=N/A speed=16.1x    frame= 1586 fps=384 q=-0.0 size=N/A time=00:01:06.14 bitrate=N/A speed=  16x    frame= 1791 fps=386 q=-0.0 size=N/A time=00:01:14.69 bitrate=N/A speed=16.1x    frame= 2037 fps=395 q=-0.0 size=N/A time=00:01:24.95 bitrate=N/A speed=16.5x    frame= 2238 fps=394 q=-0.0 size=N/A time=00:01:33.34 bitrate=N/A speed=16.4x    frame= 2460 fps=397 q=-0.0 size=N/A time=00:01:42.60 bitrate=N/A speed=16.6x    frame= 2657 fps=396 q=-0.0 size=N/A time=00:01:50.81 bitrate=N/A speed=16.5x    frame= 2851 fps=395 q=-0.0 size=N/A time=00:01:58.91 bitrate=N/A speed=16.5x    frame= 3015 fps=389 q=-0.0 size=N/A time=00:02:05.75 bitrate=N/A speed=16.2x    frame= 3162 fps=383 q=-0.0 size=N/A time=00:02:11.88 bitrate=N/A speed=  16x    frame= 3322 fps=379 q=-0.0 size=N/A time=00:02:18.55 bitrate=N/A speed=15.8x    frame= 3480 fps=375 q=-0.0 size=N/A time=00:02:25.14 bitrate=N/A speed=15.6x    frame= 3651 fps=372 q=-0.0 size=N/A time=00:02:32.27 bitrate=N/A speed=15.5x    frame= 3814 fps=370 q=-0.0 size=N/A time=00:02:39.07 bitrate=N/A speed=15.4x    frame= 3994 fps=369 q=-0.0 size=N/A time=00:02:46.58 bitrate=N/A speed=15.4x    frame= 4151 fps=366 q=-0.0 size=N/A time=00:02:53.13 bitrate=N/A speed=15.2x    frame= 4301 fps=362 q=-0.0 size=N/A time=00:02:59.38 bitrate=N/A speed=15.1x    frame= 4454 fps=359 q=-0.0 size=N/A time=00:03:05.76 bitrate=N/A speed=  15x    frame= 4617 fps=358 q=-0.0 size=N/A time=00:03:12.56 bitrate=N/A speed=14.9x    frame= 4780 fps=356 q=-0.0 size=N/A time=00:03:19.36 bitrate=N/A speed=14.8x    frame= 4952 fps=355 q=-0.0 size=N/A time=00:03:26.53 bitrate=N/A speed=14.8x    frame= 5078 fps=351 q=-0.0 size=N/A time=00:03:31.79 bitrate=N/A speed=14.7x    frame= 5261 fps=351 q=-0.0 size=N/A time=00:03:39.42 bitrate=N/A speed=14.7x    frame= 5452 fps=352 q=-0.0 size=N/A time=00:03:47.39 bitrate=N/A speed=14.7x    frame= 5648 fps=353 q=-0.0 size=N/A time=00:03:55.56 bitrate=N/A speed=14.7x    frame= 5858 fps=354 q=-0.0 size=N/A time=00:04:04.32 bitrate=N/A speed=14.8x    frame= 6037 fps=354 q=-0.0 size=N/A time=00:04:11.79 bitrate=N/A speed=14.8x    frame= 6232 fps=355 q=-0.0 size=N/A time=00:04:19.92 bitrate=N/A speed=14.8x    frame= 6419 fps=355 q=-0.0 size=N/A time=00:04:27.72 bitrate=N/A speed=14.8x    frame= 6608 fps=355 q=-0.0 size=N/A time=00:04:35.60 bitrate=N/A speed=14.8x    frame= 6823 fps=357 q=-0.0 size=N/A time=00:04:44.57 bitrate=N/A speed=14.9x    frame= 7045 fps=359 q=-0.0 size=N/A time=00:04:53.83 bitrate=N/A speed=  15x    frame= 7251 fps=360 q=-0.0 size=N/A time=00:05:02.42 bitrate=N/A speed=  15x    frame= 7462 fps=361 q=-0.0 size=N/A time=00:05:11.22 bitrate=N/A speed=15.1x    frame= 7656 fps=361 q=-0.0 size=N/A time=00:05:19.31 bitrate=N/A speed=15.1x    frame= 7827 fps=361 q=-0.0 size=N/A time=00:05:26.45 bitrate=N/A speed=  15x    frame= 8021 fps=361 q=-0.0 size=N/A time=00:05:34.54 bitrate=N/A speed=15.1x    frame= 8234 fps=362 q=-0.0 size=N/A time=00:05:43.42 bitrate=N/A speed=15.1x    frame= 8451 fps=364 q=-0.0 size=N/A time=00:05:52.47 bitrate=N/A speed=15.2x    frame= 8663 fps=365 q=-0.0 size=N/A time=00:06:01.31 bitrate=N/A speed=15.2x    frame= 8874 fps=366 q=-0.0 size=N/A time=00:06:10.11 bitrate=N/A speed=15.2x    frame= 9065 fps=366 q=-0.0 size=N/A time=00:06:18.08 bitrate=N/A speed=15.3x    frame= 9267 fps=366 q=-0.0 size=N/A time=00:06:26.51 bitrate=N/A speed=15.3x    frame= 9456 fps=366 q=-0.0 size=N/A time=00:06:34.39 bitrate=N/A speed=15.3x    frame= 9689 fps=368 q=-0.0 size=N/A time=00:06:44.11 bitrate=N/A speed=15.3x    frame= 9903 fps=369 q=-0.0 size=N/A time=00:06:53.03 bitrate=N/A speed=15.4x    frame=10119 fps=370 q=-0.0 size=N/A time=00:07:02.04 bitrate=N/A speed=15.4x    frame=10343 fps=371 q=-0.0 size=N/A time=00:07:11.38 bitrate=N/A speed=15.5x    frame=10559 fps=372 q=-0.0 size=N/A time=00:07:20.39 bitrate=N/A speed=15.5x    frame=10766 fps=372 q=-0.0 size=N/A time=00:07:29.03 bitrate=N/A speed=15.5x    frame=10993 fps=373 q=-0.0 size=N/A time=00:07:38.49 bitrate=N/A speed=15.6x    frame=11196 fps=374 q=-0.0 size=N/A time=00:07:46.96 bitrate=N/A speed=15.6x    frame=11405 fps=374 q=-0.0 size=N/A time=00:07:55.68 bitrate=N/A speed=15.6x    frame=11628 fps=375 q=-0.0 size=N/A time=00:08:04.98 bitrate=N/A speed=15.6x    frame=11819 fps=375 q=-0.0 size=N/A time=00:08:12.95 bitrate=N/A speed=15.6x    frame=12014 fps=375 q=-0.0 size=N/A time=00:08:21.08 bitrate=N/A speed=15.7x    frame=12208 fps=375 q=-0.0 size=N/A time=00:08:29.17 bitrate=N/A speed=15.6x    frame=12374 fps=374 q=-0.0 size=N/A time=00:08:36.09 bitrate=N/A speed=15.6x    frame=12558 fps=374 q=-0.0 size=N/A time=00:08:43.77 bitrate=N/A speed=15.6x    frame=12740 fps=374 q=-0.0 size=N/A time=00:08:51.36 bitrate=N/A speed=15.6x    frame=12943 fps=374 q=-0.0 size=N/A time=00:08:59.83 bitrate=N/A speed=15.6x    frame=13154 fps=375 q=-0.0 size=N/A time=00:09:08.63 bitrate=N/A speed=15.6x    frame=13387 fps=376 q=-0.0 size=N/A time=00:09:18.34 bitrate=N/A speed=15.7x    frame=13593 fps=376 q=-0.0 size=N/A time=00:09:26.94 bitrate=N/A speed=15.7x    frame=13825 fps=377 q=-0.0 size=N/A time=00:09:36.61 bitrate=N/A speed=15.7x    frame=14044 fps=378 q=-0.0 size=N/A time=00:09:45.75 bitrate=N/A speed=15.8x    frame=14266 fps=379 q=-0.0 size=N/A time=00:09:55.01 bitrate=N/A speed=15.8x    frame=14466 fps=379 q=-0.0 size=N/A time=00:10:03.35 bitrate=N/A speed=15.8x    frame=14687 fps=379 q=-0.0 size=N/A time=00:10:12.57 bitrate=N/A speed=15.8x    frame=14883 fps=379 q=-0.0 size=N/A time=00:10:20.74 bitrate=N/A speed=15.8x    frame=15087 fps=380 q=-0.0 size=N/A time=00:10:29.25 bitrate=N/A speed=15.8x    frame=15295 fps=380 q=-0.0 size=N/A time=00:10:37.92 bitrate=N/A speed=15.8x    frame=15492 fps=380 q=-0.0 size=N/A time=00:10:46.14 bitrate=N/A speed=15.8x    frame=15704 fps=380 q=-0.0 size=N/A time=00:10:54.98 bitrate=N/A speed=15.9x    frame=15901 fps=380 q=-0.0 size=N/A time=00:11:03.20 bitrate=N/A speed=15.9x    frame=16077 fps=380 q=-0.0 size=N/A time=00:11:10.54 bitrate=N/A speed=15.8x    frame=16280 fps=380 q=-0.0 size=N/A time=00:11:19.01 bitrate=N/A speed=15.8x    frame=16499 fps=380 q=-0.0 size=N/A time=00:11:28.14 bitrate=N/A speed=15.9x    frame=16697 fps=380 q=-0.0 size=N/A time=00:11:36.40 bitrate=N/A speed=15.9x    frame=16897 fps=380 q=-0.0 size=N/A time=00:11:44.74 bitrate=N/A speed=15.9x    frame=17095 fps=380 q=-0.0 size=N/A time=00:11:53.00 bitrate=N/A speed=15.9x    frame=17290 fps=380 q=-0.0 size=N/A time=00:12:01.13 bitrate=N/A speed=15.9x    frame=17496 fps=381 q=-0.0 size=N/A time=00:12:09.72 bitrate=N/A speed=15.9x    frame=17694 fps=381 q=-0.0 size=N/A time=00:12:17.98 bitrate=N/A speed=15.9x    frame=17891 fps=381 q=-0.0 size=N/A time=00:12:26.20 bitrate=N/A speed=15.9x    frame=18077 fps=381 q=-0.0 size=N/A time=00:12:33.96 bitrate=N/A speed=15.9x    frame=18268 fps=380 q=-0.0 size=N/A time=00:12:41.92 bitrate=N/A speed=15.9x    frame=18474 fps=381 q=-0.0 size=N/A time=00:12:50.51 bitrate=N/A speed=15.9x    frame=18671 fps=381 q=-0.0 size=N/A time=00:12:58.73 bitrate=N/A speed=15.9x    frame=18867 fps=380 q=-0.0 size=N/A time=00:13:06.91 bitrate=N/A speed=15.9x    frame=19064 fps=381 q=-0.0 size=N/A time=00:13:15.12 bitrate=N/A speed=15.9x    frame=19246 fps=380 q=-0.0 size=N/A time=00:13:22.71 bitrate=N/A speed=15.9x    frame=19449 fps=380 q=-0.0 size=N/A time=00:13:31.18 bitrate=N/A speed=15.9x    frame=19656 fps=381 q=-0.0 size=N/A time=00:13:39.81 bitrate=N/A speed=15.9x    frame=19856 fps=381 q=-0.0 size=N/A time=00:13:48.16 bitrate=N/A speed=15.9x    frame=20072 fps=381 q=-0.0 size=N/A time=00:13:57.16 bitrate=N/A speed=15.9x    frame=20281 fps=381 q=-0.0 size=N/A time=00:14:05.88 bitrate=N/A speed=15.9x    frame=20488 fps=381 q=-0.0 size=N/A time=00:14:14.52 bitrate=N/A speed=15.9x    frame=20686 fps=382 q=-0.0 size=N/A time=00:14:22.77 bitrate=N/A speed=15.9x    frame=20865 fps=381 q=-0.0 size=N/A time=00:14:30.24 bitrate=N/A speed=15.9x    frame=21061 fps=381 q=-0.0 size=N/A time=00:14:38.41 bitrate=N/A speed=15.9x    frame=21269 fps=381 q=-0.0 size=N/A time=00:14:47.09 bitrate=N/A speed=15.9x    frame=21477 fps=382 q=-0.0 size=N/A time=00:14:55.76 bitrate=N/A speed=15.9x    frame=21694 fps=382 q=-0.0 size=N/A time=00:15:04.82 bitrate=N/A speed=15.9x    frame=21891 fps=382 q=-0.0 size=N/A time=00:15:13.03 bitrate=N/A speed=15.9x    frame=22088 fps=382 q=-0.0 size=N/A time=00:15:21.25 bitrate=N/A speed=15.9x    frame=22275 fps=382 q=-0.0 size=N/A time=00:15:29.05 bitrate=N/A speed=15.9x    frame=22489 fps=382 q=-0.0 size=N/A time=00:15:37.97 bitrate=N/A speed=15.9x    frame=22699 fps=382 q=-0.0 size=N/A time=00:15:46.73 bitrate=N/A speed=15.9x    frame=22916 fps=383 q=-0.0 size=N/A time=00:15:55.78 bitrate=N/A speed=  16x    frame=23082 fps=382 q=-0.0 size=N/A time=00:16:02.71 bitrate=N/A speed=15.9x    frame=23282 fps=382 q=-0.0 size=N/A time=00:16:11.05 bitrate=N/A speed=15.9x    frame=23463 fps=382 q=-0.0 size=N/A time=00:16:18.60 bitrate=N/A speed=15.9x    frame=23636 fps=381 q=-0.0 size=N/A time=00:16:25.81 bitrate=N/A speed=15.9x    frame=23844 fps=382 q=-0.0 size=N/A time=00:16:34.49 bitrate=N/A speed=15.9x    frame=24045 fps=382 q=-0.0 size=N/A time=00:16:42.87 bitrate=N/A speed=15.9x    frame=24249 fps=382 q=-0.0 size=N/A time=00:16:51.38 bitrate=N/A speed=15.9x    frame=24434 fps=382 q=-0.0 size=N/A time=00:16:59.10 bitrate=N/A speed=15.9x    frame=24612 fps=381 q=-0.0 size=N/A time=00:17:06.52 bitrate=N/A speed=15.9x    frame=24803 fps=381 q=-0.0 size=N/A time=00:17:14.49 bitrate=N/A speed=15.9x    frame=25006 fps=381 q=-0.0 size=N/A time=00:17:22.95 bitrate=N/A speed=15.9x    frame=25240 fps=382 q=-0.0 size=N/A time=00:17:32.71 bitrate=N/A speed=15.9x    frame=25461 fps=382 q=-0.0 size=N/A time=00:17:41.93 bitrate=N/A speed=15.9x    frame=25682 fps=382 q=-0.0 size=N/A time=00:17:51.15 bitrate=N/A speed=  16x    frame=25889 fps=383 q=-0.0 size=N/A time=00:17:59.78 bitrate=N/A speed=  16x    frame=26103 fps=383 q=-0.0 size=N/A time=00:18:08.71 bitrate=N/A speed=  16x    frame=26335 fps=383 q=-0.0 size=N/A time=00:18:18.38 bitrate=N/A speed=  16x    frame=26543 fps=384 q=-0.0 size=N/A time=00:18:27.06 bitrate=N/A speed=  16x    frame=26739 fps=383 q=-0.0 size=N/A time=00:18:35.23 bitrate=N/A speed=  16x    frame=26924 fps=383 q=-0.0 size=N/A time=00:18:42.95 bitrate=N/A speed=  16x    frame=27135 fps=384 q=-0.0 size=N/A time=00:18:51.75 bitrate=N/A speed=  16x    frame=27336 fps=384 q=-0.0 size=N/A time=00:19:00.13 bitrate=N/A speed=  16x    frame=27543 fps=384 q=-0.0 size=N/A time=00:19:08.77 bitrate=N/A speed=  16x    frame=27726 fps=383 q=-0.0 size=N/A time=00:19:16.40 bitrate=N/A speed=  16x    frame=27903 fps=383 q=-0.0 size=N/A time=00:19:23.78 bitrate=N/A speed=  16x    frame=28078 fps=383 q=-0.0 size=N/A time=00:19:31.08 bitrate=N/A speed=  16x    frame=28240 fps=382 q=-0.0 size=N/A time=00:19:37.84 bitrate=N/A speed=15.9x    frame=28409 fps=382 q=-0.0 size=N/A time=00:19:44.89 bitrate=N/A speed=15.9x    frame=28564 fps=381 q=-0.0 size=N/A time=00:19:51.35 bitrate=N/A speed=15.9x    frame=28729 fps=381 q=-0.0 size=N/A time=00:19:58.23 bitrate=N/A speed=15.9x    frame=28896 fps=381 q=-0.0 size=N/A time=00:20:05.20 bitrate=N/A speed=15.9x    frame=29056 fps=380 q=-0.0 size=N/A time=00:20:11.87 bitrate=N/A speed=15.9x    frame=29190 fps=379 q=-0.0 size=N/A time=00:20:17.46 bitrate=N/A speed=15.8x    frame=29331 fps=379 q=-0.0 size=N/A time=00:20:23.34 bitrate=N/A speed=15.8x    frame=29488 fps=378 q=-0.0 size=N/A time=00:20:29.89 bitrate=N/A speed=15.8x    frame=29636 fps=378 q=-0.0 size=N/A time=00:20:36.06 bitrate=N/A speed=15.7x    frame=29805 fps=377 q=-0.0 size=N/A time=00:20:43.11 bitrate=N/A speed=15.7x    frame=29986 fps=377 q=-0.0 size=N/A time=00:20:50.66 bitrate=N/A speed=15.7x    [Parsed_psnr_14 @ 000001b2a58265c0] PSNR y:46.902759 u:48.875094 v:48.940789 average:47.474046 min:30.357533 max:74.247613
[out#0/null @ 000001b2a57c2e80] video:12980KiB audio:236236KiB subtitle:0KiB other streams:0KiB global headers:0KiB muxing overhead: unknown
frame=30207 fps=377 q=-0.0 Lsize=N/A time=00:20:59.88 bitrate=N/A speed=15.7x    
